<?xml version="1.0" encoding="UTF-8"?>
<svg xmlns="http://www.w3.org/2000/svg" width="2140" height="427" viewBox="0 0 2140 427" fill="none">
  <path fill-rule="evenodd" clip-rule="evenodd" d="M34.4999 271C53.5538 271 68.9999 286.222 68.9999 305C68.9999 323.778 53.5538 339 34.4999 339C15.4462 339 -4.61397e-06 323.778 -2.97237e-06 305C-1.33078e-06 286.222 15.4462 271 34.4999 271Z" fill="#1A132F"></path>
  <path fill-rule="evenodd" clip-rule="evenodd" d="M34.4166 182L142.583 182C161.591 182 177 197.446 177 216.5C177 235.554 161.591 251 142.583 251L34.4166 251C15.4089 251 -4.68182e-06 235.554 -3.01609e-06 216.5C-1.35035e-06 197.446 15.4089 182 34.4166 182Z" fill="#F42154"></path>
  <path fill-rule="evenodd" clip-rule="evenodd" d="M231.364 182L270.636 182C289.615 182 305 197.446 305 216.5C305 235.554 289.615 251 270.636 251L231.364 251C212.385 251 197 235.554 197 216.5C197 197.446 212.385 182 231.364 182Z" fill="#13C2E9"></path>
  <path fill-rule="evenodd" clip-rule="evenodd" d="M34.4166 94L142.583 94C161.591 94 177 109.222 177 128C177 146.778 161.591 162 142.583 162L34.4166 162C15.4089 162 -4.61397e-06 146.778 -2.97237e-06 128C-1.33078e-06 109.222 15.4089 94 34.4166 94Z" fill="#FCC73F"></path>
  <path fill-rule="evenodd" clip-rule="evenodd" d="M231.364 94L270.636 94C289.615 94 305 109.222 305 128C305 146.778 289.615 162 270.636 162L231.364 162C212.385 162 197 146.778 197 128C197 109.222 212.385 94 231.364 94Z" fill="#88E9B4"></path>
  <path fill-rule="evenodd" clip-rule="evenodd" d="M123.364 271L270.636 271C289.615 271 305 286.222 305 305C305 323.778 289.615 339 270.636 339L123.364 339C104.385 339 89.0001 323.778 89.0001 305C89.0001 286.222 104.385 271 123.364 271Z" fill="#0072F9"></path>
  <path d="M428.55 279.85L426.8 237.15L565.75 94H605.65L498.2 207.4L478.6 229.1L428.55 279.85ZM397.75 339V94H432.75V339H397.75ZM571.35 339L470.9 222.1L494.35 196.2L612.3 339H571.35ZM630.413 339V153.5H664.013V339H630.413ZM647.213 117.8C640.679 117.8 635.196 115.7 630.763 111.5C626.563 107.3 624.463 102.167 624.463 96.1C624.463 89.8 626.563 84.55 630.763 80.35C635.196 76.15 640.679 74.05 647.213 74.05C653.746 74.05 659.113 76.15 663.313 80.35C667.746 84.3166 669.963 89.3333 669.963 95.4C669.963 101.7 667.863 107.067 663.663 111.5C659.463 115.7 653.979 117.8 647.213 117.8ZM795.016 341.1C776.116 341.1 759.2 337.017 744.266 328.85C729.566 320.683 718.016 309.483 709.616 295.25C701.216 281.017 697.016 264.683 697.016 246.25C697.016 227.817 701.216 211.483 709.616 197.25C718.016 183.017 729.566 171.933 744.266 164C759.2 155.833 776.116 151.75 795.016 151.75C811.816 151.75 826.75 155.133 839.816 161.9C853.116 168.433 863.383 178.233 870.616 191.3L845.066 207.75C839 198.65 831.533 192 822.666 187.8C814.033 183.367 804.7 181.15 794.666 181.15C782.533 181.15 771.683 183.833 762.116 189.2C752.55 194.567 744.966 202.15 739.366 211.95C733.766 221.517 730.966 232.95 730.966 246.25C730.966 259.55 733.766 271.1 739.366 280.9C744.966 290.7 752.55 298.283 762.116 303.65C771.683 309.017 782.533 311.7 794.666 311.7C804.7 311.7 814.033 309.6 822.666 305.4C831.533 300.967 839 294.2 845.066 285.1L870.616 301.2C863.383 314.033 853.116 323.95 839.816 330.95C826.75 337.717 811.816 341.1 795.016 341.1ZM925.025 294.2L925.725 251.15L1032.48 153.5H1073.08L991.175 234L972.975 249.4L925.025 294.2ZM897.725 339V79.3H931.325V339H897.725ZM1039.48 339L966.675 248.7L988.375 221.75L1080.78 339H1039.48ZM1099.4 339V79.3H1133V339H1099.4ZM1298.3 339V299.8L1296.55 292.45V225.6C1296.55 211.367 1292.35 200.4 1283.95 192.7C1275.79 184.767 1263.42 180.8 1246.85 180.8C1235.89 180.8 1225.15 182.667 1214.65 186.4C1204.15 189.9 1195.29 194.683 1188.05 200.75L1174.05 175.55C1183.62 167.85 1195.05 162.017 1208.35 158.05C1221.89 153.85 1236 151.75 1250.7 151.75C1276.14 151.75 1295.74 157.933 1309.5 170.3C1323.27 182.667 1330.15 201.567 1330.15 227V339H1298.3ZM1237.4 341.1C1223.64 341.1 1211.5 338.767 1201 334.1C1190.74 329.433 1182.8 323.017 1177.2 314.85C1171.6 306.45 1168.8 297 1168.8 286.5C1168.8 276.467 1171.14 267.367 1175.8 259.2C1180.7 251.033 1188.52 244.5 1199.25 239.6C1210.22 234.7 1224.92 232.25 1243.35 232.25H1302.15V256.4H1244.75C1227.95 256.4 1216.64 259.2 1210.8 264.8C1204.97 270.4 1202.05 277.167 1202.05 285.1C1202.05 294.2 1205.67 301.55 1212.9 307.15C1220.14 312.517 1230.17 315.2 1243 315.2C1255.6 315.2 1266.57 312.4 1275.9 306.8C1285.47 301.2 1292.35 293.033 1296.55 282.3L1303.2 305.4C1298.77 316.367 1290.95 325.117 1279.75 331.65C1268.55 337.95 1254.44 341.1 1237.4 341.1ZM1477.38 151.75C1492.55 151.75 1505.85 154.667 1517.28 160.5C1528.95 166.333 1538.05 175.2 1544.58 187.1C1551.12 199 1554.38 214.05 1554.38 232.25V339H1520.78V236.1C1520.78 218.133 1516.35 204.6 1507.48 195.5C1498.85 186.4 1486.6 181.85 1470.73 181.85C1458.83 181.85 1448.45 184.183 1439.58 188.85C1430.72 193.517 1423.83 200.4 1418.93 209.5C1414.27 218.6 1411.93 229.917 1411.93 243.45V339H1378.33V153.5H1410.53V203.55L1405.28 190.25C1411.35 178.117 1420.68 168.667 1433.28 161.9C1445.88 155.133 1460.58 151.75 1477.38 151.75ZM1679.21 341.1C1661.25 341.1 1645.15 337.133 1630.91 329.2C1616.91 321.267 1605.83 310.183 1597.66 295.95C1589.5 281.717 1585.41 265.15 1585.41 246.25C1585.41 227.35 1589.5 210.9 1597.66 196.9C1605.83 182.667 1616.91 171.583 1630.91 163.65C1645.15 155.717 1661.25 151.75 1679.21 151.75C1694.85 151.75 1708.96 155.25 1721.56 162.25C1734.16 169.25 1744.2 179.75 1751.66 193.75C1759.36 207.75 1763.21 225.25 1763.21 246.25C1763.21 267.25 1759.48 284.75 1752.01 298.75C1744.78 312.75 1734.86 323.367 1722.26 330.6C1709.66 337.6 1695.31 341.1 1679.21 341.1ZM1682.01 311.7C1693.68 311.7 1704.18 309.017 1713.51 303.65C1723.08 298.283 1730.55 290.7 1735.91 280.9C1741.51 270.867 1744.31 259.317 1744.31 246.25C1744.31 232.95 1741.51 221.517 1735.91 211.95C1730.55 202.15 1723.08 194.567 1713.51 189.2C1704.18 183.833 1693.68 181.15 1682.01 181.15C1670.11 181.15 1659.5 183.833 1650.16 189.2C1640.83 194.567 1633.36 202.15 1627.76 211.95C1622.16 221.517 1619.36 232.95 1619.36 246.25C1619.36 259.317 1622.16 270.867 1627.76 280.9C1633.36 290.7 1640.83 298.283 1650.16 303.65C1659.5 309.017 1670.11 311.7 1682.01 311.7ZM1745.36 339V288.95L1747.46 245.9L1743.96 202.85V79.3H1777.56V339H1745.36ZM1909.74 341.1C1889.91 341.1 1872.41 337.017 1857.24 328.85C1842.31 320.683 1830.64 309.483 1822.24 295.25C1814.07 281.017 1809.99 264.683 1809.99 246.25C1809.99 227.817 1813.96 211.483 1821.89 197.25C1830.06 183.017 1841.14 171.933 1855.14 164C1869.37 155.833 1885.36 151.75 1903.09 151.75C1921.06 151.75 1936.92 155.717 1950.69 163.65C1964.46 171.583 1975.19 182.783 1982.89 197.25C1990.82 211.483 1994.79 228.167 1994.79 247.3C1994.79 248.7 1994.67 250.333 1994.44 252.2C1994.44 254.067 1994.32 255.817 1994.09 257.45H1836.24V233.3H1976.59L1962.94 241.7C1963.17 229.8 1960.72 219.183 1955.59 209.85C1950.46 200.517 1943.34 193.283 1934.24 188.15C1925.37 182.783 1914.99 180.1 1903.09 180.1C1891.42 180.1 1881.04 182.783 1871.94 188.15C1862.84 193.283 1855.72 200.633 1850.59 210.2C1845.46 219.533 1842.89 230.267 1842.89 242.4V248C1842.89 260.367 1845.69 271.45 1851.29 281.25C1857.12 290.817 1865.17 298.283 1875.44 303.65C1885.71 309.017 1897.49 311.7 1910.79 311.7C1921.76 311.7 1931.67 309.833 1940.54 306.1C1949.64 302.367 1957.57 296.767 1964.34 289.3L1982.89 311C1974.49 320.8 1963.99 328.267 1951.39 333.4C1939.02 338.533 1925.14 341.1 1909.74 341.1ZM2027.45 339V153.5H2059.65V203.9L2056.5 191.3C2061.63 178.467 2070.26 168.667 2082.4 161.9C2094.53 155.133 2109.46 151.75 2127.2 151.75V184.3C2125.8 184.067 2124.4 183.95 2123 183.95C2121.83 183.95 2120.66 183.95 2119.5 183.95C2101.53 183.95 2087.3 189.317 2076.8 200.05C2066.3 210.783 2061.05 226.3 2061.05 246.6V339H2027.45Z" fill="#1A132F"></path>
</svg>
